<?xml version="1.0" standalone="no"?>
<!DOCTYPE svg PUBLIC "-//W3C//DTD SVG 20010904//EN"
 "http://www.w3.org/TR/2001/REC-SVG-20010904/DTD/svg10.dtd">
<svg version="1.0" xmlns="http://www.w3.org/2000/svg"
 width="629.000000pt" height="631.000000pt" viewBox="0 0 629.000000 631.000000"
 preserveAspectRatio="xMidYMid meet">

<g transform="translate(0.000000,631.000000) scale(0.100000,-0.100000)"
fill="#000000" stroke="none">
<path d="M396 6053 c-14 -15 -24 -28 -22 -30 4 -5 5359 -4 5363 1 2 2 -10 15
-27 30 l-32 26 -2628 0 -2629 0 -25 -27z"/>
<path d="M2960 5889 c-47 -4 -101 -11 -120 -17 -44 -11 -212 -124 -232 -154
-9 -13 -33 -42 -54 -65 -53 -59 -56 -62 -99 -123 -21 -30 -48 -66 -60 -80 -12
-14 -31 -41 -41 -60 -10 -19 -25 -39 -32 -45 -7 -5 -14 -20 -16 -31 -3 -12
-16 -33 -30 -47 -14 -14 -26 -31 -26 -37 0 -5 -13 -24 -29 -41 -16 -16 -36
-45 -44 -62 -9 -18 -27 -43 -41 -56 -14 -13 -23 -27 -20 -32 2 -4 -9 -22 -26
-39 -16 -17 -30 -34 -30 -39 0 -11 -110 -155 -126 -164 -8 -4 -14 -14 -14 -21
0 -7 -9 -21 -20 -31 -11 -10 -20 -23 -20 -28 0 -6 -7 -17 -15 -26 -14 -15 -88
-116 -125 -171 -8 -12 -22 -32 -31 -44 -9 -11 -30 -48 -47 -81 -17 -33 -45
-80 -61 -105 -17 -25 -31 -51 -31 -57 0 -7 -4 -13 -8 -13 -5 0 -19 -20 -32
-44 -12 -25 -28 -47 -35 -50 -7 -2 -22 -25 -35 -50 -12 -25 -26 -46 -31 -46
-6 0 -8 -4 -4 -9 3 -5 -17 -38 -45 -72 -27 -34 -50 -68 -50 -75 0 -7 -16 -36
-35 -66 -20 -29 -38 -63 -41 -75 -4 -13 -9 -23 -13 -23 -4 0 -18 -26 -31 -57
-13 -32 -36 -77 -52 -100 -15 -23 -28 -47 -28 -53 0 -5 -11 -27 -23 -48 -13
-20 -30 -54 -36 -75 -7 -21 -19 -41 -26 -44 -8 -2 -17 -18 -20 -34 -4 -16 -11
-31 -16 -34 -5 -4 -9 -13 -9 -22 0 -8 -13 -35 -30 -60 -16 -24 -30 -46 -30
-48 0 -3 -25 -41 -56 -85 -30 -44 -62 -96 -70 -115 -8 -19 -18 -35 -23 -35 -5
0 -20 -21 -33 -47 -13 -27 -42 -77 -65 -112 -24 -36 -49 -77 -55 -93 -7 -15
-16 -28 -20 -28 -5 0 -8 -6 -8 -12 0 -12 -46 -86 -70 -115 -5 -7 -10 -14 -10
-17 0 -3 -15 -31 -34 -63 -19 -33 -38 -72 -42 -87 -3 -15 -13 -30 -20 -33 -8
-3 -14 -11 -14 -19 0 -8 -9 -31 -20 -51 -11 -21 -20 -43 -20 -50 0 -7 -11 -36
-24 -65 -38 -84 -48 -116 -50 -150 -1 -18 -5 -39 -9 -45 -9 -14 -7 -93 3 -108
4 -5 14 -35 24 -67 9 -31 30 -77 47 -102 16 -26 29 -50 29 -54 0 -28 192 -214
244 -237 13 -5 29 -15 37 -21 8 -6 32 -17 54 -24 22 -7 49 -20 59 -29 14 -12
20 -13 23 -3 3 6 9 12 15 12 6 0 8 -7 4 -15 -3 -8 -2 -16 2 -16 54 -9 91 -5
171 17 l96 25 93 92 c79 78 101 108 147 197 100 193 123 233 293 520 24 41 54
91 67 110 95 147 159 248 205 325 69 116 97 151 140 178 l35 22 964 3 c1093 5
992 13 1067 -81 23 -29 59 -81 80 -117 20 -36 80 -130 132 -210 53 -80 135
-210 182 -290 99 -165 188 -310 236 -385 37 -58 116 -134 180 -171 23 -13 77
-37 120 -53 69 -25 90 -28 165 -25 47 2 97 8 111 13 14 5 56 13 94 16 38 4 87
14 108 23 50 20 206 173 206 202 0 12 5 30 10 41 15 28 24 265 11 274 -6 3 -9
10 -6 15 3 5 -2 28 -12 52 -19 48 -152 300 -162 308 -3 3 -12 16 -19 30 -20
40 -65 114 -99 162 -18 25 -30 48 -26 51 3 4 -8 22 -26 42 -17 20 -31 42 -31
49 0 7 -12 31 -27 52 -16 22 -35 51 -43 64 -8 14 -35 61 -62 105 -26 44 -63
101 -83 128 -20 26 -35 53 -32 60 6 17 -12 49 -24 41 -12 -7 -51 25 -44 36 2
4 -9 20 -25 35 -17 16 -30 33 -30 39 0 5 -7 16 -15 25 -30 32 -67 81 -60 81 9
0 -27 63 -42 73 -6 4 -19 27 -29 52 -9 25 -21 45 -25 45 -5 0 -9 7 -9 15 0 8
-8 22 -19 32 -10 10 -33 47 -52 83 -18 36 -56 101 -84 145 -66 104 -70 111
-99 170 -14 28 -36 62 -49 75 -13 14 -32 39 -41 57 -9 17 -24 38 -34 45 -11 7
-24 30 -31 50 -7 20 -19 42 -27 48 -7 7 -14 23 -14 35 0 13 -7 25 -15 29 -8 3
-15 13 -15 23 0 10 -9 29 -20 43 -11 14 -20 32 -20 41 0 9 -8 27 -19 40 -10
13 -24 42 -31 64 -7 22 -16 42 -19 45 -9 6 -41 75 -41 87 0 4 -10 19 -23 33
-12 14 -40 51 -61 83 -21 32 -44 61 -52 64 -8 3 -11 10 -8 15 4 5 -3 23 -15
39 -11 15 -21 32 -21 37 0 5 -7 16 -16 23 -9 8 -27 30 -39 50 -13 20 -29 42
-37 50 -7 8 -38 55 -68 104 -30 50 -61 95 -69 101 -8 6 -11 16 -7 23 9 13 -68
162 -103 199 -13 14 -31 38 -40 52 -45 74 -156 189 -229 240 -28 19 -51 38
-52 43 0 4 -8 7 -18 7 -10 0 -33 13 -52 30 -19 16 -44 29 -55 30 -11 0 -42 7
-68 15 -26 8 -62 13 -80 12 -18 -1 -70 -5 -117 -8z m632 -521 c-7 -7 -12 -8
-12 -2 0 14 12 26 19 19 2 -3 -1 -11 -7 -17z m-59 -153 c-3 -9 -8 -14 -10 -11
-3 3 -2 9 2 15 9 16 15 13 8 -4z m-913 -142 c0 -5 -10 -19 -21 -33 l-21 -25
18 33 c18 32 24 38 24 25z m504 -335 c65 -75 166 -212 269 -363 49 -71 100
-147 114 -167 35 -52 41 -115 14 -149 -22 -28 -84 -49 -146 -49 -20 0 -45 -5
-56 -10 -13 -7 -19 -7 -19 0 0 7 -115 10 -349 10 -199 0 -361 4 -375 10 -38
14 -66 47 -66 78 0 15 14 49 30 75 17 26 30 50 30 52 0 17 132 204 225 320
158 197 207 245 250 245 28 0 41 -9 79 -52z m-914 -328 c0 -5 -4 -10 -10 -10
-5 0 -10 5 -10 10 0 6 5 10 10 10 6 0 10 -4 10 -10z m80 -384 c0 -3 -4 -8 -10
-11 -5 -3 -10 -1 -10 4 0 6 5 11 10 11 6 0 10 -2 10 -4z m1010 -61 c0 -17 -31
-75 -39 -75 -13 0 -14 5 -2 28 5 9 12 25 15 35 5 15 26 25 26 12z m1220 -244
c0 -6 -4 -13 -10 -16 -5 -3 -10 1 -10 9 0 9 5 16 10 16 6 0 10 -4 10 -9z
m-1643 -358 c-3 -10 -5 -4 -5 12 0 17 2 24 5 18 2 -7 2 -21 0 -30z m1496 10
c-7 -3 -13 -12 -14 -21 0 -11 -2 -13 -6 -4 -6 15 17 46 26 36 3 -4 0 -9 -6
-11z m-43 -137 c0 -3 -4 -8 -10 -11 -5 -3 -10 -1 -10 4 0 6 5 11 10 11 6 0 10
-2 10 -4z m-822 -123 c-14 -18 -19 -12 -11 16 4 16 8 19 14 10 4 -7 3 -19 -3
-26z m777 18 c-3 -6 -11 -11 -17 -11 -6 0 -6 6 2 15 14 17 26 13 15 -4z m520
10 c3 -5 1 -12 -5 -16 -5 -3 -10 1 -10 9 0 18 6 21 15 7z m-572 -115 c4 -10 1
-13 -8 -9 -8 3 -12 9 -9 14 7 12 11 11 17 -5z m-1800 -231 c-3 -9 -8 -14 -10
-11 -3 3 -2 9 2 15 9 16 15 13 8 -4z m-806 -21 c-3 -3 -12 -4 -19 -1 -8 3 -5
6 6 6 11 1 17 -2 13 -5z m-1039 -366 c-3 -14 -24 -38 -33 -38 -3 0 2 11 11 25
18 27 25 32 22 13z m4292 -7 c0 -5 -7 -14 -15 -21 -16 -14 -18 -10 -9 14 6 17
24 22 24 7z m-117 -246 c-3 -9 -8 -14 -10 -11 -3 3 -2 9 2 15 9 16 15 13 8 -4z
m-33 -75 c0 -5 -5 -10 -11 -10 -5 0 -7 5 -4 10 3 6 8 10 11 10 2 0 4 -4 4 -10z"/>
<path d="M136 5749 l-26 -31 0 -2362 0 -2362 30 -34 29 -35 1 2428 c0 1335 -2
2427 -4 2427 -2 0 -16 -14 -30 -31z"/>
<path d="M5980 3327 c0 -1351 2 -2457 5 -2457 3 0 17 12 30 28 l24 27 1 2401
0 2400 -30 29 -30 29 0 -2457z"/>
<path d="M3717 2083 c-43 -7 -73 -64 -79 -148 -7 -97 13 -133 90 -163 82 -31
151 -30 193 5 18 15 41 47 51 70 16 37 18 51 9 100 -13 69 -30 95 -73 116 -36
17 -144 28 -191 20z"/>
<path d="M2306 2042 c-89 -37 -106 -60 -108 -148 -1 -59 2 -72 23 -95 31 -34
129 -63 183 -55 98 16 137 64 140 171 2 70 -14 97 -78 128 -67 33 -74 33 -160
-1z m195 -225 c-10 -9 -11 -8 -5 6 3 10 9 15 12 12 3 -3 0 -11 -7 -18z"/>
<path d="M3590 1673 c-8 -3 -46 -25 -85 -49 -117 -71 -153 -79 -365 -79 -176
1 -189 2 -265 29 -44 15 -108 43 -142 62 -50 26 -68 32 -87 25 -28 -11 -38
-41 -22 -73 25 -51 228 -130 379 -149 110 -13 291 -7 377 14 63 14 180 73 248
124 60 45 31 121 -38 96z"/>
<path d="M3261 714 c0 -11 3 -14 6 -6 3 7 2 16 -1 19 -3 4 -6 -2 -5 -13z"/>
<path d="M350 680 l21 -30 165 0 164 0 0 30 0 30 -186 0 -185 0 21 -30z"/>
<path d="M5350 680 l0 -30 213 0 c220 0 225 1 256 43 13 16 0 17 -228 17
l-241 0 0 -30z"/>
</g>
</svg>
